# xmcd CD database file
# Copyright (C) 1994 Ti Kan
#
# Track frame offsets:
#	187
#	23877
#	41035
#	59810
#	90365
#	108525
#	122235
#	149145
#	175675
#	190085
#	215735
#	240170
#	263037
#	283985
#	305392
#	325087
#
# Disc length: 4606 seconds
#
# Revision: 1
# Processed by: cddbd v1.4b41PL1 Copyright (c) Steve Scherf et al.
# Submitted via: xmcd 1.3
#
DISCID=f011fc10
DTITLE=Leon Redbone - Live!
DYEAR=1900
DGENRE=
TTITLE0=Diddy Wah Diddy
TTITLE1=Please Don't Talk About Me
TTITLE2=I'm Crazy About My Baby
TTITLE3=Big Time Woman and Desert Blues
TTITLE4=Polly Wolly Doodle
TTITLE5=Shine On Harvest Moon
TTITLE6=Crazy Blues
TTITLE7=2:17
TTITLE8=Alabama Jubilee
TTITLE9=I Ain't Got Nobody
TTITLE10=That's All I Do
TTITLE11=Whiskey
TTITLE12=He's In The Jailhouse Now
TTITLE13=If We Never Meet Again This Side Of Heaven
TTITLE14=Someday Sweetheart
TTITLE15=Champagne Charlie
EXTD=
EXTT0=
EXTT1=
EXTT2=
EXTT3=
EXTT4=
EXTT5=
EXTT6=
EXTT7=
EXTT8=
EXTT9=
EXTT10=
EXTT11=
EXTT12=
EXTT13=
EXTT14=
EXTT15=
PLAYORDER=
